<svg width="438" height="282" viewBox="0 0 438 282" fill="none" xmlns="http://www.w3.org/2000/svg">
<path fill-rule="evenodd" clip-rule="evenodd" d="M433.714 0.734821C436.633 0.120329 438.482 3.69736 436.374 5.80774L162.095 280.339C159.575 282.86 155.265 281.076 155.265 277.512V122.374C155.265 121.388 154.546 120.548 153.571 120.397L3.72872 97.2067C0.432502 96.6965 0.142769 92.0297 3.40653 91.3418C101.528 70.6618 378.165 12.4281 433.714 0.734821ZM174.383 87.6748L101 98.6748L174 100.175L174.383 87.6748ZM339 59.1748L186.147 85.6748V100.175L297 98.1748L339 59.1748ZM283.5 114.175L186.147 109.175V213.675L283.5 114.175Z" fill="#01B249" stroke="#01B249" stroke-width="0.5"/>
</svg>
